<?xml version="1.0" standalone="no"?>
<!DOCTYPE svg PUBLIC "-//W3C//DTD SVG 20010904//EN"
 "http://www.w3.org/TR/2001/REC-SVG-20010904/DTD/svg10.dtd">
<svg version="1.0" xmlns="http://www.w3.org/2000/svg"
 width="225.000000pt" height="225.000000pt" viewBox="0 0 225.000000 225.000000"
 preserveAspectRatio="xMidYMid meet">

<g transform="translate(0.000000,225.000000) scale(0.100000,-0.100000)"
fill="#000000" stroke="none">
<path d="M511 1722 c-8 -6 -11 -17 -8 -26 5 -13 24 -16 106 -16 80 0 103 -3
119 -17 16 -14 44 -108 122 -413 56 -217 107 -398 114 -402 6 -4 221 -8 477
-8 383 0 469 2 478 14 27 33 -8 36 -474 38 l-458 3 -18 65 c-10 36 -18 68 -19
73 0 4 210 7 468 7 278 0 481 4 503 10 19 6 45 20 56 32 23 24 133 374 133
420 0 14 -9 36 -19 49 l-19 24 -632 5 -632 5 -16 49 c-25 74 -51 88 -169 93
-54 2 -104 0 -112 -5z m1552 -203 c12 -19 -92 -380 -119 -410 -16 -18 -35 -19
-513 -19 l-496 0 -54 213 c-30 116 -56 218 -59 225 -3 10 121 12 613 10 549
-3 619 -5 628 -19z"/>
<path d="M147 1444 c-4 -4 -7 -13 -7 -21 0 -11 43 -13 238 -11 203 3 237 5
237 18 0 13 -33 15 -231 18 -127 1 -233 -1 -237 -4z"/>
<path d="M167 1264 c-4 -4 -7 -13 -7 -21 0 -10 47 -13 241 -13 224 0 240 1
237 18 -3 15 -23 17 -234 20 -127 1 -233 -1 -237 -4z"/>
<path d="M193 1074 c-3 -9 0 -20 8 -25 8 -5 111 -9 230 -9 178 0 219 3 229 15
26 31 0 35 -231 35 -201 0 -230 -2 -236 -16z"/>
<path d="M1105 772 c-103 -24 -129 -168 -41 -226 14 -9 45 -16 71 -16 90 0
149 92 110 173 -25 53 -84 82 -140 69z m76 -55 c30 -23 41 -56 30 -89 -14 -39
-38 -57 -77 -58 -49 0 -79 30 -79 80 0 32 6 47 24 61 26 21 78 25 102 6z"/>
<path d="M1683 769 c-51 -15 -83 -61 -83 -121 0 -44 4 -54 34 -84 30 -30 40
-34 84 -34 62 0 106 32 123 90 26 88 -66 175 -158 149z m94 -61 c50 -47 12
-138 -57 -138 -41 0 -80 39 -80 80 0 68 87 105 137 58z"/>
</g>
</svg>
